<svg width="32" height="32" viewBox="0 0 32 32" fill="none" xmlns="http://www.w3.org/2000/svg">
<path d="M16 32C24.8366 32 32 24.8366 32 16C32 7.16344 24.8366 0 16 0C7.16344 0 0 7.16344 0 16C0 24.8366 7.16344 32 16 32Z" fill="#FBCC5C"/>
<path fill-rule="evenodd" clip-rule="evenodd" d="M19.5073 19.5106C19.0599 19.6213 18.592 19.68 18.1102 19.68C14.9102 19.68 12.3202 17.09 12.3202 13.89C12.3202 13.4034 12.3801 12.9308 12.4929 12.4794C12.9403 12.3687 13.4082 12.31 13.89 12.31C17.09 12.31 19.68 14.9 19.68 18.1C19.68 18.5866 19.6201 19.0592 19.5073 19.5106ZM21.7757 18.3737C21.7786 18.2862 21.78 18.1983 21.78 18.11C21.78 13.75 18.25 10.22 13.89 10.22C13.8019 10.22 13.7141 10.2214 13.6267 10.2243C14.6881 8.92723 16.3017 8.09999 18.1102 8.09999C21.3102 8.09999 23.9002 10.69 23.9002 13.89C23.9002 15.6986 23.0729 17.3123 21.7757 18.3737ZM21.1624 21.1772C24.0052 19.9819 26.0002 17.1677 26.0002 13.89C26.0002 9.52999 22.4702 6.00999 18.1102 6.00999C14.839 6.00999 12.035 7.99709 10.8386 10.8309C7.99533 12.0232 6 14.832 6 18.11C6 22.47 9.53 26 13.89 26C17.1619 26 19.9664 24.012 21.1624 21.1772ZM18.3567 21.7862C18.2748 21.7887 18.1927 21.79 18.1102 21.79C13.7502 21.79 10.2202 18.26 10.2202 13.9C10.2202 13.8048 10.2219 13.71 10.2252 13.6157C8.92763 14.6771 8.1 16.2911 8.1 18.1C8.1 21.3 10.7 23.89 13.89 23.89C15.6889 23.89 17.2951 23.0715 18.3567 21.7862Z" fill="white"/>
</svg>
