<svg width="30" height="33" viewBox="0 0 30 33" fill="none"><path d="M15 0C9.106 0 4.284 4.64 4.284 11.344V25.78h21.429V11.344C25.714 4.64 20.892 0 14.999 0z" fill="#D4EEFF"></path><path d="M30 12.375H0V33h30V12.375z" fill="#56B4FC"></path><path d="M25.714 12.375H4.285v16.5h21.429v-16.5z" fill="#1652F0"></path><path d="M15 18.563l2.84 6.187h-5.68L15 18.562z" fill="#fff"></path><path d="M15 20.625c1.184 0 2.143-.923 2.143-2.063 0-1.139-.96-2.062-2.143-2.062-1.183 0-2.143.923-2.143 2.063 0 1.139.96 2.062 2.143 2.062z" fill="#fff"></path></svg>