<svg width="32" height="32" viewBox="0 0 32 32" fill="none" xmlns="http://www.w3.org/2000/svg">
<circle cx="16" cy="16" r="16" fill="#1AAB9B"/>
<path d="M15.2761 21.1713C14.7505 21.1713 14.2419 21.1713 13.7183 21.1713C13.7183 21.1304 13.7183 21.0926 13.7183 21.0548C13.7183 19.9819 13.7175 18.909 13.7199 17.8362C13.7199 17.7633 13.6996 17.7177 13.6397 17.6732C11.6531 16.1924 9.66764 14.7097 7.68178 13.2274C7.65639 13.2085 7.62902 13.1923 7.58975 13.1659C7.58975 15.84 7.58975 18.4988 7.58975 21.1662C7.0677 21.1662 6.55438 21.1662 6.02637 21.1662C6.02637 21.1323 6.02637 21.0977 6.02637 21.063C6.02637 18.2941 6.02598 15.5251 6.02677 12.7561C6.02677 12.4415 6.02796 12.1265 6.03907 11.812C6.06247 11.1415 6.83841 10.7316 7.40291 11.1013C7.74168 11.323 8.05864 11.5777 8.38354 11.8198C10.536 13.4262 12.6865 15.0349 14.8409 16.6385C15.1373 16.8594 15.2793 17.1365 15.2777 17.5039C15.2725 18.685 15.2757 19.8662 15.2757 21.0473C15.2761 21.0859 15.2761 21.1245 15.2761 21.1713Z" fill="white"/>
<path d="M26.2365 21.1692C25.712 21.1692 25.2043 21.1692 24.685 21.1692C24.685 18.5029 24.685 15.8422 24.685 13.1626C24.6394 13.1933 24.6096 13.2114 24.5818 13.2323C22.6015 14.7103 20.622 16.1891 18.6405 17.6659C18.5759 17.7139 18.5505 17.7628 18.5509 17.8443C18.5541 18.9104 18.5529 19.9766 18.5529 21.0424C18.5529 21.0814 18.5529 21.1207 18.5529 21.1672C18.0332 21.1672 17.5195 21.1672 16.9911 21.1672C16.9911 21.1329 16.9911 21.0983 16.9911 21.064C16.9911 19.8668 16.9915 18.6695 16.9907 17.4722C16.9907 17.1383 17.118 16.873 17.391 16.6698C19.8477 14.8379 22.3044 13.0067 24.7556 11.1677C25.2431 10.8019 25.8985 10.9736 26.1409 11.4629C26.2174 11.6173 26.2369 11.7807 26.2369 11.95C26.2361 13.8 26.2365 15.6501 26.2365 17.5002C26.2365 18.6777 26.2365 19.8553 26.2365 21.0329C26.2365 21.0755 26.2365 21.1176 26.2365 21.1692Z" fill="white"/>
</svg>
